<?xml version="1.0" encoding="UTF-8" standalone="no"?>
<svg
   xmlns:dc="http://purl.org/dc/elements/1.1/"
   xmlns:cc="http://creativecommons.org/ns#"
   xmlns:rdf="http://www.w3.org/1999/02/22-rdf-syntax-ns#"
   xmlns:svg="http://www.w3.org/2000/svg"
   xmlns="http://www.w3.org/2000/svg"
   height="60.52375"
   width="300"
   xml:space="preserve"
   viewBox="0 0 300.00001 60.523753"
   y="0px"
   x="0px"
   id="Capa_1"
   version="1.1"><metadata
     id="metadata85"><rdf:RDF><cc:Work
         rdf:about=""><dc:format>image/svg+xml</dc:format><dc:type
           rdf:resource="http://purl.org/dc/dcmitype/StillImage" /><dc:title></dc:title></cc:Work></rdf:RDF></metadata><defs
     id="defs83" /><g
     transform="matrix(0.11821022,0,0,0.11821022,-3.1917692,0)"
     id="g6"><g
       id="g4"><path
         id="path2"
         d="m 482.464,57.343 c -1.897,-2.127 -4.612,-3.344 -7.463,-3.344 H 375.346 V 10 c 0,-5.522 -4.478,-10 -10,-10 -5.522,0 -10,4.478 -10,10 V 53.999 H 37.001 c -2.851,0 -5.565,1.217 -7.463,3.344 -1.897,2.128 -2.797,4.964 -2.472,7.796 L 59.012,343.63 c 0,0.004 0,0.009 10e-4,0.013 0.002,0.019 0.005,0.037 0.007,0.056 l 15.804,137.774 c 1.995,17.404 16.712,30.528 34.23,30.528 h 293.891 c 17.519,0 32.235,-13.124 34.23,-30.528 L 452.98,343.699 c 0.002,-0.019 0.005,-0.037 0.007,-0.056 0,-0.004 0,-0.009 10e-4,-0.013 L 484.934,65.139 c 0.327,-2.832 -0.572,-5.668 -2.47,-7.796 z m -126.237,76.624 c 3.044,-0.815 6.101,-1.204 9.111,-1.204 15.557,0 29.831,10.396 34.045,26.119 5.028,18.768 -6.15,38.129 -24.917,43.157 -9.094,2.437 -18.587,1.186 -26.738,-3.521 -8.15,-4.706 -13.981,-12.305 -16.417,-21.396 -2.436,-9.092 -1.186,-18.587 3.521,-26.738 4.705,-8.15 12.304,-13.981 21.395,-16.417 z m 61.081,345.226 c -0.838,7.302 -7.012,12.808 -14.361,12.808 H 109.056 c -7.35,0 -13.523,-5.506 -14.361,-12.808 l -8.724,-76.052 c 19.598,21.585 47.853,34.968 78.967,34.968 h 126.229 54.275 1.623 c 31.115,0 59.369,-13.384 78.967,-34.968 z M 345.442,336.652 c 7.494,0 13.592,6.098 13.592,13.592 v 54.275 c 0,7.494 -6.098,13.591 -13.592,13.591 h -54.275 c -7.495,-0.001 -13.592,-6.097 -13.592,-13.591 v -54.275 c 0,-7.494 6.098,-13.592 13.592,-13.592 z m -50.671,-47.319 c 0,-0.652 0.16,-1.906 1.234,-2.979 l 23.076,-23.076 c 1.073,-1.074 2.327,-1.234 2.979,-1.234 0.652,0 1.906,0.16 2.979,1.234 l 23.076,23.076 c 1.074,1.073 1.234,2.327 1.234,2.979 0,0.651 -0.16,1.905 -1.234,2.979 l -23.076,23.076 c -1.073,1.074 -2.327,1.234 -2.979,1.234 -0.651,0 -1.905,-0.16 -2.979,-1.234 l -23.076,-23.076 c -1.074,-1.073 -1.234,-2.327 -1.234,-2.979 z m 138.342,52.066 c -3.789,32.904 -25.666,59.714 -55.018,70.976 0.607,-2.522 0.937,-5.15 0.937,-7.856 v -54.275 c 0,-16.453 -11.893,-30.171 -27.532,-33.034 l 10.755,-10.755 c 4.573,-4.573 7.092,-10.654 7.092,-17.121 0,-6.468 -2.519,-12.549 -7.092,-17.122 l -23.076,-23.076 c -4.573,-4.573 -10.654,-7.092 -17.122,-7.092 -6.467,0 -12.548,2.519 -17.121,7.092 l -23.076,23.076 c -4.573,4.573 -7.092,10.654 -7.092,17.122 0,6.467 2.519,12.548 7.092,17.121 l 10.197,10.197 h -0.893 c -18.522,0 -33.592,15.069 -33.592,33.592 v 54.275 c 0,4.836 1.035,9.432 2.883,13.591 h -95.52 c -44.027,0 -81.014,-32.977 -86.05,-76.711 L 54.955,132.756 h 35.113 l -11.291,11.291 c -4.684,4.685 -7.264,10.912 -7.264,17.536 0,6.624 2.58,12.852 7.264,17.536 l 24.027,24.027 c 4.685,4.685 10.912,7.264 17.536,7.264 6.625,0 12.853,-2.58 17.536,-7.264 l 24.028,-24.027 c 4.684,-4.685 7.263,-10.912 7.263,-17.536 0,-6.624 -2.579,-12.852 -7.263,-17.536 l -11.292,-11.291 h 39.457 c 5.522,0 10,-4.478 10,-10 0,-5.522 -4.478,-10 -10,-10 H 52.66 L 48.214,73.999 c 0,0 307.132,0 307.132,0 v 38.757 h -64.345 c -5.522,0 -10,4.478 -10,10 0,5.522 4.478,10 10,10 h 31.819 c -1.957,2.372 -3.742,4.912 -5.31,7.629 -7.377,12.777 -9.336,27.663 -5.518,41.914 3.818,14.252 12.958,26.163 25.735,33.54 8.512,4.914 17.957,7.425 27.529,7.425 4.797,0 9.627,-0.631 14.385,-1.906 29.42,-7.883 46.941,-38.23 39.059,-67.651 -2.128,-7.943 -5.906,-15.008 -10.85,-20.95 h 49.197 z M 91.514,161.583 c 0,-0.743 0.183,-2.171 1.406,-3.394 l 24.026,-24.027 c 0.937,-0.936 2.165,-1.403 3.395,-1.403 1.23,0 2.458,0.468 3.394,1.403 l 24.028,24.027 c 1.223,1.223 1.405,2.652 1.405,3.394 0,0.742 -0.182,2.171 -1.405,3.394 l -24.028,24.028 c -1.224,1.223 -2.651,1.405 -3.394,1.405 -0.743,0 -2.17,-0.183 -3.394,-1.406 L 92.92,164.977 c -1.224,-1.223 -1.406,-2.651 -1.406,-3.394 z M 459.343,112.756 H 375.346 V 73.999 h 88.443 z" /></g></g><g
     transform="matrix(0.11821022,0,0,0.11821022,-3.1917692,0)"
     id="g12"><g
       id="g10"><path
         id="path8"
         d="m 209.319,326.834 c -7.699,-28.737 -37.343,-45.852 -66.08,-38.152 -13.922,3.73 -25.557,12.658 -32.763,25.14 -7.206,12.48 -9.12,27.021 -5.39,40.941 6.452,24.079 28.307,39.998 52.129,39.997 4.609,0 9.294,-0.597 13.952,-1.845 28.737,-7.7 45.853,-37.345 38.152,-66.081 z m -43.327,46.763 c -18.082,4.849 -36.739,-5.925 -41.587,-24.01 -2.348,-8.761 -1.143,-17.911 3.392,-25.766 4.535,-7.855 11.857,-13.474 20.618,-15.821 2.926,-0.784 5.895,-1.172 8.844,-1.172 5.883,0 11.69,1.544 16.922,4.564 7.855,4.535 13.474,11.857 15.821,20.617 4.845,18.086 -5.925,36.742 -24.01,41.588 z" /></g></g><g
     transform="matrix(0.11821022,0,0,0.11821022,-3.1917692,0)"
     id="g18"><g
       id="g16"><path
         id="path14"
         d="m 251.407,183.315 h -42.728 c -15.775,-0.001 -28.609,12.833 -28.609,28.609 v 42.728 c 0,15.775 12.834,28.609 28.609,28.609 h 42.728 c 15.775,0 28.609,-12.834 28.609,-28.609 v -42.728 c 0,-15.775 -12.834,-28.609 -28.609,-28.609 z m 8.609,71.337 c 0,4.747 -3.862,8.609 -8.609,8.609 h -42.728 c -4.747,0 -8.609,-3.862 -8.609,-8.609 v -42.728 c 0,-4.747 3.862,-8.609 8.609,-8.609 h 42.728 c 4.747,0 8.609,3.862 8.609,8.609 z" /></g></g><g
     transform="matrix(0.11821022,0,0,0.11821022,-3.1917692,0)"
     id="g24"><g
       id="g22"><path
         id="path20"
         d="m 240.811,373.86 c -1.859,-1.87 -4.43,-2.93 -7.069,-2.93 -2.631,0 -5.21,1.061 -7.07,2.93 -1.86,1.86 -2.93,4.44 -2.93,7.07 0,2.63 1.069,5.21 2.93,7.07 1.86,1.859 4.439,2.93 7.07,2.93 2.64,0 5.21,-1.07 7.069,-2.93 1.87,-1.86 2.931,-4.44 2.931,-7.07 0,-2.64 -1.061,-5.21 -2.931,-7.07 z" /></g></g><g
     transform="matrix(0.11821022,0,0,0.11821022,-3.1917692,0)"
     id="g30"><g
       id="g28"><path
         id="path26"
         d="m 121.521,245.66 c -1.859,-1.86 -4.439,-2.931 -7.069,-2.931 -2.631,0 -5.21,1.07 -7.07,2.931 -1.86,1.859 -2.93,4.439 -2.93,7.069 0,2.63 1.069,5.21 2.93,7.07 1.861,1.86 4.439,2.93 7.07,2.93 2.63,0 5.21,-1.069 7.069,-2.93 1.86,-1.86 2.931,-4.44 2.931,-7.07 0,-2.63 -1.07,-5.21 -2.931,-7.069 z" /></g></g><g
     transform="matrix(0.11821022,0,0,0.11821022,-3.1917692,0)"
     id="g36"><g
       id="g34"><path
         id="path32"
         d="m 391.271,243.88 c -1.87,-1.86 -4.439,-2.93 -7.08,-2.93 -2.63,0 -5.21,1.069 -7.069,2.93 -1.86,1.86 -2.931,4.439 -2.931,7.07 0,2.63 1.07,5.21 2.931,7.069 1.859,1.861 4.439,2.931 7.069,2.931 2.641,0 5.21,-1.07 7.08,-2.931 1.86,-1.859 2.931,-4.439 2.931,-7.069 0,-2.631 -1.07,-5.21 -2.931,-7.07 z" /></g></g><g
     transform="matrix(0.11821022,0,0,0.11821022,-3.1917692,0)"
     id="g42"><g
       id="g40"><path
         id="path38"
         d="m 417.081,326.67 c -1.86,-1.86 -4.431,-2.93 -7.07,-2.93 -2.63,0 -5.21,1.069 -7.07,2.93 -1.859,1.86 -2.93,4.439 -2.93,7.07 0,2.63 1.07,5.21 2.93,7.069 1.87,1.871 4.44,2.931 7.07,2.931 2.64,0 5.21,-1.061 7.07,-2.931 1.859,-1.859 2.93,-4.439 2.93,-7.069 0,-2.631 -1.07,-5.21 -2.93,-7.07 z" /></g></g><g
     transform="matrix(0.11821022,0,0,0.11821022,-3.1917692,0)"
     id="g48"><g
       id="g46"><path
         id="path44"
         d="m 248.07,115.68 c -1.859,-1.86 -4.439,-2.92 -7.069,-2.92 -2.63,0 -5.21,1.06 -7.07,2.92 -1.86,1.87 -2.93,4.44 -2.93,7.08 0,2.63 1.069,5.2 2.93,7.07 1.861,1.859 4.441,2.93 7.07,2.93 2.63,0 5.21,-1.07 7.069,-2.93 1.86,-1.87 2.931,-4.44 2.931,-7.07 0,-2.64 -1.07,-5.21 -2.931,-7.08 z" /></g></g><g
     transform="translate(-27.000789,-451.47725)"
     id="g50" /><g
     transform="translate(-27.000789,-451.47725)"
     id="g52" /><g
     transform="translate(-27.000789,-451.47725)"
     id="g54" /><g
     transform="translate(-27.000789,-451.47725)"
     id="g56" /><g
     transform="translate(-27.000789,-451.47725)"
     id="g58" /><g
     transform="translate(-27.000789,-451.47725)"
     id="g60" /><g
     transform="translate(-27.000789,-451.47725)"
     id="g62" /><g
     transform="translate(-27.000789,-451.47725)"
     id="g64" /><g
     transform="translate(-27.000789,-451.47725)"
     id="g66" /><g
     transform="translate(-27.000789,-451.47725)"
     id="g68" /><g
     transform="translate(-27.000789,-451.47725)"
     id="g70" /><g
     transform="translate(-27.000789,-451.47725)"
     id="g72" /><g
     transform="translate(-27.000789,-451.47725)"
     id="g74" /><g
     transform="translate(-27.000789,-451.47725)"
     id="g76" /><g
     transform="translate(-27.000789,-451.47725)"
     id="g78" /><g
     transform="translate(-27.000789,-451.47725)"
     id="text89"
     style="font-style:normal;font-variant:normal;font-weight:bold;font-stretch:normal;font-size:533.33331299px;line-height:1.25;font-family:Roboto;-inkscape-font-specification:'Roboto, Bold';font-variant-ligatures:normal;font-variant-caps:normal;font-variant-numeric:normal;font-feature-settings:normal;text-align:start;letter-spacing:0px;word-spacing:0px;writing-mode:lr-tb;text-anchor:start;fill:#000000;fill-opacity:1;stroke:none"
     aria-label="BARBOT"><path
       id="path273"
       style="stroke-width:0.11821022"
       d="M 88.979593,510.74007 V 465.9187 h 15.699797 q 8.15773,0 12.37513,3.13995 4.21739,3.10918 4.21739,9.14283 0,3.29387 -1.69311,5.81815 -1.69312,2.4935 -4.70994,3.66329 3.4478,0.86195 5.41797,3.47858 2.00095,2.61663 2.00095,6.40305 0,6.46463 -4.12504,9.78929 -4.12504,3.32466 -11.75945,3.38623 z m 9.235173,-19.517 v 12.09808 h 7.911464 q 3.26309,0 5.07935,-1.5392 1.84703,-1.56998 1.84703,-4.30975 0,-6.15678 -6.37227,-6.24913 z m 0,-6.52619 h 6.834024 q 6.98795,-0.12313 6.98795,-5.57189 0,-3.0476 -1.78547,-4.37131 -1.75468,-1.35449 -5.57188,-1.35449 h -6.464624 z" /><path
       id="path275"
       style="stroke-width:0.11821022"
       d="m 154.54932,501.5049 h -16.19234 l -3.07839,9.23517 h -9.82006 L 142.1434,465.9187 h 8.55793 l 16.77723,44.82137 h -9.82006 z m -13.69884,-7.4805 h 11.20535 l -5.63346,-16.77723 z" /><path
       id="path277"
       style="stroke-width:0.11821022"
       d="m 188.31927,494.33224 h -7.35736 v 16.40783 h -9.23517 V 465.9187 h 16.65409 q 7.94225,0 12.25201,3.54015 4.30974,3.54015 4.30974,10.00477 0,4.5868 -2.00095,7.66519 -1.97017,3.04761 -6.00286,4.86386 l 9.69693,18.31642 v 0.43098 h -9.91242 z m -7.35736,-7.48049 h 7.44972 q 3.47857,0 5.38718,-1.75468 1.9086,-1.78546 1.9086,-4.89464 0,-3.17074 -1.81625,-4.98699 -1.78546,-1.81625 -5.51033,-1.81625 h -7.41892 z" /><path
       id="path279"
       style="stroke-width:0.11821022"
       d="M 211.9921,510.74007 V 465.9187 h 15.69979 q 8.15773,0 12.37513,3.13995 4.2174,3.10918 4.2174,9.14283 0,3.29387 -1.69311,5.81815 -1.69312,2.4935 -4.70995,3.66329 3.4478,0.86195 5.41798,3.47858 2.00095,2.61663 2.00095,6.40305 0,6.46463 -4.12505,9.78929 -4.12504,3.32466 -11.75944,3.38623 z m 9.23517,-19.517 v 12.09808 h 7.91147 q 3.26309,0 5.07935,-1.5392 1.84703,-1.56998 1.84703,-4.30975 0,-6.15678 -6.37227,-6.24913 z m 0,-6.52619 h 6.83403 q 6.98795,-0.12313 6.98795,-5.57189 0,-3.0476 -1.78547,-4.37131 -1.75468,-1.35449 -5.57189,-1.35449 h -6.46462 z" /><path
       id="path281"
       style="stroke-width:0.11821022"
       d="m 289.07502,489.34525 q 0,6.61854 -2.33959,11.60553 -2.33958,4.987 -6.71088,7.69598 -4.34054,2.70899 -9.97399,2.70899 -5.5719,0 -9.94321,-2.6782 -4.37132,-2.6782 -6.77246,-7.63441 -2.40115,-4.987 -2.43193,-11.45162 v -2.21644 q 0,-6.61854 2.37037,-11.63632 2.40114,-5.04856 6.74167,-7.72676 4.37132,-2.70898 9.97398,-2.70898 5.60268,0 9.94321,2.70898 4.37132,2.6782 6.74168,7.72676 2.40115,5.01778 2.40115,11.60554 z m -9.35832,-2.03174 q 0,-7.04951 -2.52428,-10.7128 -2.52427,-3.66328 -7.20344,-3.66328 -4.64837,0 -7.17265,3.6325 -2.52427,3.60172 -2.55505,10.58966 v 2.18566 q 0,6.86481 2.52427,10.65123 2.52428,3.78642 7.26501,3.78642 4.64837,0 7.14186,-3.6325 2.4935,-3.66328 2.52428,-10.65123 z" /><path
       id="path283"
       style="stroke-width:0.11821022"
       d="m 327.00079,473.39919 h -13.72962 v 37.34088 H 304.036 v -37.34088 h -13.54493 v -7.48049 h 36.50972 z" /></g><g
     transform="translate(-27.000789,-451.47725)"
     id="text271"
     style="font-style:normal;font-weight:normal;font-size:40px;line-height:1.25;font-family:sans-serif;letter-spacing:0px;word-spacing:0px;fill:#000000;fill-opacity:1;stroke:none" /></svg>